<?xml version="1.0" encoding="UTF-8" standalone="no"?>
<!DOCTYPE svg PUBLIC "-//W3C//DTD SVG 1.1//EN"
 "http://www.w3.org/Graphics/SVG/1.1/DTD/svg11.dtd">
<!-- Generated by graphviz version 12.1.2 (20240928.0832)
 -->
<!-- Title: point_app Pages: 1 -->
<svg width="887pt" height="750pt"
 viewBox="0.00 0.00 887.47 750.00" xmlns="http://www.w3.org/2000/svg" xmlns:xlink="http://www.w3.org/1999/xlink">
<g id="graph0" class="graph" transform="scale(1 1) rotate(0) translate(4 746)">
<title>point_app</title>
<polygon fill="white" stroke="none" points="-4,4 -4,-746 883.47,-746 883.47,4 -4,4"/>
<!-- migrations -->
<g id="node1" class="node">
<title>migrations</title>
<polygon fill="#efefef" stroke="none" points="43.2,-617 43.2,-652.6 258.68,-652.6 258.68,-617 43.2,-617"/>
<polygon fill="none" stroke="black" points="43.2,-617 43.2,-652.6 258.68,-652.6 258.68,-617 43.2,-617"/>
<text text-anchor="start" x="50.2" y="-630.4" font-family="Arial Bold" font-size="18.00">migrations</text>
<text text-anchor="start" x="127.19" y="-630.4" font-family="Arial" font-size="14.00">    </text>
<text text-anchor="start" x="158.31" y="-630.4" font-family="Arial" font-size="14.00" fill="#666666">[BASE TABLE]</text>
<polygon fill="none" stroke="black" points="43.2,-586.2 43.2,-617 258.68,-617 258.68,-586.2 43.2,-586.2"/>
<text text-anchor="start" x="50.2" y="-598.4" font-family="Arial" font-size="14.00">id </text>
<text text-anchor="start" x="64.99" y="-598.4" font-family="Arial" font-size="14.00" fill="#666666">[varchar(255)]</text>
<polygon fill="none" stroke="black" points="43.2,-555.4 43.2,-586.2 258.68,-586.2 258.68,-555.4 43.2,-555.4"/>
<text text-anchor="start" x="50.2" y="-567.6" font-family="Arial" font-size="14.00">applied_at </text>
<text text-anchor="start" x="118.7" y="-567.6" font-family="Arial" font-size="14.00" fill="#666666">[datetime]</text>
</g>
<!-- transactions -->
<g id="node2" class="node">
<title>transactions</title>
<polygon fill="#efefef" stroke="none" points="363.15,-663.2 363.15,-698.8 592.73,-698.8 592.73,-663.2 363.15,-663.2"/>
<polygon fill="none" stroke="black" points="363.15,-663.2 363.15,-698.8 592.73,-698.8 592.73,-663.2 363.15,-663.2"/>
<text text-anchor="start" x="372.71" y="-676.6" font-family="Arial Bold" font-size="18.00">transactions</text>
<text text-anchor="start" x="458.68" y="-676.6" font-family="Arial" font-size="14.00">    </text>
<text text-anchor="start" x="489.8" y="-676.6" font-family="Arial" font-size="14.00" fill="#666666">[BASE TABLE]</text>
<polygon fill="none" stroke="black" points="363.15,-632.4 363.15,-663.2 592.73,-663.2 592.73,-632.4 363.15,-632.4"/>
<text text-anchor="start" x="370.15" y="-644.6" font-family="Arial" font-size="14.00">id </text>
<text text-anchor="start" x="384.93" y="-644.6" font-family="Arial" font-size="14.00" fill="#666666">[bigint unsigned]</text>
<polygon fill="none" stroke="black" points="363.15,-601.6 363.15,-632.4 592.73,-632.4 592.73,-601.6 363.15,-601.6"/>
<text text-anchor="start" x="370.15" y="-613.8" font-family="Arial" font-size="14.00">sending_user_id </text>
<text text-anchor="start" x="476.78" y="-613.8" font-family="Arial" font-size="14.00" fill="#666666">[bigint unsigned]</text>
<polygon fill="none" stroke="black" points="363.15,-570.8 363.15,-601.6 592.73,-601.6 592.73,-570.8 363.15,-570.8"/>
<text text-anchor="start" x="370.15" y="-583" font-family="Arial" font-size="14.00">receiving_user_id </text>
<text text-anchor="start" x="483.77" y="-583" font-family="Arial" font-size="14.00" fill="#666666">[bigint unsigned]</text>
<polygon fill="none" stroke="black" points="363.15,-540 363.15,-570.8 592.73,-570.8 592.73,-540 363.15,-540"/>
<text text-anchor="start" x="370.15" y="-552.2" font-family="Arial" font-size="14.00">transaction_point </text>
<text text-anchor="start" x="480.66" y="-552.2" font-family="Arial" font-size="14.00" fill="#666666">[int]</text>
<polygon fill="none" stroke="black" points="363.15,-509.2 363.15,-540 592.73,-540 592.73,-509.2 363.15,-509.2"/>
<text text-anchor="start" x="370.15" y="-521.4" font-family="Arial" font-size="14.00">transaction_at </text>
<text text-anchor="start" x="461.98" y="-521.4" font-family="Arial" font-size="14.00" fill="#666666">[datetime(6)]</text>
</g>
<!-- users -->
<g id="node3" class="node">
<title>users</title>
<polygon fill="#efefef" stroke="none" points="366.67,-351.2 366.67,-386.8 589.21,-386.8 589.21,-351.2 366.67,-351.2"/>
<polygon fill="none" stroke="black" points="366.67,-351.2 366.67,-386.8 589.21,-386.8 589.21,-351.2 366.67,-351.2"/>
<text text-anchor="start" x="397.2" y="-364.6" font-family="Arial Bold" font-size="18.00">users</text>
<text text-anchor="start" x="434.19" y="-364.6" font-family="Arial" font-size="14.00">    </text>
<text text-anchor="start" x="465.31" y="-364.6" font-family="Arial" font-size="14.00" fill="#666666">[BASE TABLE]</text>
<polygon fill="none" stroke="black" points="366.67,-320.4 366.67,-351.2 589.21,-351.2 589.21,-320.4 366.67,-320.4"/>
<text text-anchor="start" x="373.67" y="-332.6" font-family="Arial" font-size="14.00">id </text>
<text text-anchor="start" x="388.45" y="-332.6" font-family="Arial" font-size="14.00" fill="#666666">[bigint unsigned]</text>
<polygon fill="none" stroke="black" points="366.67,-289.6 366.67,-320.4 589.21,-320.4 589.21,-289.6 366.67,-289.6"/>
<text text-anchor="start" x="373.67" y="-301.8" font-family="Arial" font-size="14.00">family_name </text>
<text text-anchor="start" x="456.92" y="-301.8" font-family="Arial" font-size="14.00" fill="#666666">[varchar(256)]</text>
<polygon fill="none" stroke="black" points="366.67,-258.8 366.67,-289.6 589.21,-289.6 589.21,-258.8 366.67,-258.8"/>
<text text-anchor="start" x="373.67" y="-271" font-family="Arial" font-size="14.00">family_name_kana </text>
<text text-anchor="start" x="495.07" y="-271" font-family="Arial" font-size="14.00" fill="#666666">[varchar(256)]</text>
<polygon fill="none" stroke="black" points="366.67,-228 366.67,-258.8 589.21,-258.8 589.21,-228 366.67,-228"/>
<text text-anchor="start" x="373.67" y="-240.2" font-family="Arial" font-size="14.00">first_name </text>
<text text-anchor="start" x="442.92" y="-240.2" font-family="Arial" font-size="14.00" fill="#666666">[varchar(256)]</text>
<polygon fill="none" stroke="black" points="366.67,-197.2 366.67,-228 589.21,-228 589.21,-197.2 366.67,-197.2"/>
<text text-anchor="start" x="373.67" y="-209.4" font-family="Arial" font-size="14.00">first_name_kana </text>
<text text-anchor="start" x="481.06" y="-209.4" font-family="Arial" font-size="14.00" fill="#666666">[varchar(256)]</text>
<polygon fill="none" stroke="black" points="366.67,-166.4 366.67,-197.2 589.21,-197.2 589.21,-166.4 366.67,-166.4"/>
<text text-anchor="start" x="373.67" y="-178.6" font-family="Arial" font-size="14.00">email </text>
<text text-anchor="start" x="411.01" y="-178.6" font-family="Arial" font-size="14.00" fill="#666666">[varchar(256)]</text>
<polygon fill="none" stroke="black" points="366.67,-135.6 366.67,-166.4 589.21,-166.4 589.21,-135.6 366.67,-135.6"/>
<text text-anchor="start" x="373.67" y="-147.8" font-family="Arial" font-size="14.00">password </text>
<text text-anchor="start" x="437.48" y="-147.8" font-family="Arial" font-size="14.00" fill="#666666">[varchar(256)]</text>
<polygon fill="none" stroke="black" points="366.67,-104.8 366.67,-135.6 589.21,-135.6 589.21,-104.8 366.67,-104.8"/>
<text text-anchor="start" x="373.67" y="-117" font-family="Arial" font-size="14.00">sending_point </text>
<text text-anchor="start" x="464.74" y="-117" font-family="Arial" font-size="14.00" fill="#666666">[int]</text>
<polygon fill="none" stroke="black" points="366.67,-74 366.67,-104.8 589.21,-104.8 589.21,-74 366.67,-74"/>
<text text-anchor="start" x="373.67" y="-86.2" font-family="Arial" font-size="14.00">created_at </text>
<text text-anchor="start" x="443.72" y="-86.2" font-family="Arial" font-size="14.00" fill="#666666">[datetime(6)]</text>
<polygon fill="none" stroke="black" points="366.67,-43.2 366.67,-74 589.21,-74 589.21,-43.2 366.67,-43.2"/>
<text text-anchor="start" x="373.67" y="-55.4" font-family="Arial" font-size="14.00">update_at </text>
<text text-anchor="start" x="439.84" y="-55.4" font-family="Arial" font-size="14.00" fill="#666666">[datetime(6)]</text>
</g>
<!-- transactions&#45;&gt;users -->
<g id="edge1" class="edge">
<title>transactions:receiving_user_id&#45;&gt;users:id</title>
<path fill="none" stroke="black" d="M603.48,-583.39C648.74,-555.88 642.38,-335.8 590.21,-335.8"/>
<polygon fill="black" stroke="black" points="603.66,-583.33 592.81,-581.78 598.54,-584.81 594.38,-586.01 594.38,-586.01 594.38,-586.01 598.54,-584.81 595.3,-590.43 603.66,-583.33"/>
<text text-anchor="start" x="600.73" y="-596.2" font-family="Arial" font-size="10.00">FOREIGN KEY (receiving_user_id) REFERENCES users (id)</text>
</g>
<!-- transactions&#45;&gt;users -->
<g id="edge2" class="edge">
<title>transactions:sending_user_id&#45;&gt;users:id</title>
<path fill="none" stroke="black" d="M603.72,-614.4C655.64,-586.05 649.17,-335.8 590.21,-335.8"/>
<polygon fill="black" stroke="black" points="603.73,-614.39 592.92,-612.56 598.57,-615.74 594.38,-616.83 594.38,-616.83 594.38,-616.83 598.57,-615.74 595.19,-621.27 603.73,-614.39"/>
<text text-anchor="start" x="600.73" y="-627" font-family="Arial" font-size="10.00">FOREIGN KEY (sending_user_id) REFERENCES users (id)</text>
</g>
</g>
</svg>
