<?xml version="1.0" encoding="UTF-8" standalone="no"?>
<!DOCTYPE svg PUBLIC "-//W3C//DTD SVG 1.1//EN"
 "http://www.w3.org/Graphics/SVG/1.1/DTD/svg11.dtd">
<!-- Generated by graphviz version 12.1.2 (20240928.0832)
 -->
<!-- Title: transactions Pages: 1 -->
<svg width="571pt" height="756pt"
 viewBox="0.00 0.00 570.52 756.00" xmlns="http://www.w3.org/2000/svg" xmlns:xlink="http://www.w3.org/1999/xlink">
<g id="graph0" class="graph" transform="scale(1 1) rotate(0) translate(4 752)">
<title>transactions</title>
<polygon fill="white" stroke="none" points="-4,4 -4,-752 566.52,-752 566.52,4 -4,4"/>
<!-- transactions -->
<g id="node1" class="node">
<title>transactions</title>
<polygon fill="#efefef" stroke="none" points="46.2,-666.2 46.2,-701.8 275.78,-701.8 275.78,-666.2 46.2,-666.2"/>
<polygon fill="none" stroke="black" points="46.2,-666.2 46.2,-701.8 275.78,-701.8 275.78,-666.2 46.2,-666.2"/>
<text text-anchor="start" x="55.76" y="-679.6" font-family="Arial Bold" font-size="18.00">transactions</text>
<text text-anchor="start" x="141.74" y="-679.6" font-family="Arial" font-size="14.00">    </text>
<text text-anchor="start" x="172.85" y="-679.6" font-family="Arial" font-size="14.00" fill="#666666">[BASE TABLE]</text>
<polygon fill="none" stroke="black" points="46.2,-635.4 46.2,-666.2 275.78,-666.2 275.78,-635.4 46.2,-635.4"/>
<text text-anchor="start" x="53.2" y="-647.6" font-family="Arial" font-size="14.00">id </text>
<text text-anchor="start" x="67.99" y="-647.6" font-family="Arial" font-size="14.00" fill="#666666">[bigint unsigned]</text>
<polygon fill="none" stroke="black" points="46.2,-604.6 46.2,-635.4 275.78,-635.4 275.78,-604.6 46.2,-604.6"/>
<text text-anchor="start" x="53.2" y="-616.8" font-family="Arial" font-size="14.00">sending_user_id </text>
<text text-anchor="start" x="159.83" y="-616.8" font-family="Arial" font-size="14.00" fill="#666666">[bigint unsigned]</text>
<polygon fill="none" stroke="black" points="46.2,-573.8 46.2,-604.6 275.78,-604.6 275.78,-573.8 46.2,-573.8"/>
<text text-anchor="start" x="53.2" y="-586" font-family="Arial" font-size="14.00">receiving_user_id </text>
<text text-anchor="start" x="166.82" y="-586" font-family="Arial" font-size="14.00" fill="#666666">[bigint unsigned]</text>
<polygon fill="none" stroke="black" points="46.2,-543 46.2,-573.8 275.78,-573.8 275.78,-543 46.2,-543"/>
<text text-anchor="start" x="53.2" y="-555.2" font-family="Arial" font-size="14.00">transaction_point </text>
<text text-anchor="start" x="163.72" y="-555.2" font-family="Arial" font-size="14.00" fill="#666666">[int]</text>
<polygon fill="none" stroke="black" points="46.2,-512.2 46.2,-543 275.78,-543 275.78,-512.2 46.2,-512.2"/>
<text text-anchor="start" x="53.2" y="-524.4" font-family="Arial" font-size="14.00">transaction_at </text>
<text text-anchor="start" x="145.03" y="-524.4" font-family="Arial" font-size="14.00" fill="#666666">[datetime(6)]</text>
<polygon fill="none" stroke="black" stroke-width="3" points="44.7,-510.7 44.7,-703.3 277.28,-703.3 277.28,-510.7 44.7,-510.7"/>
</g>
<!-- users -->
<g id="node2" class="node">
<title>users</title>
<polygon fill="#efefef" stroke="none" points="49.72,-351.2 49.72,-386.8 272.26,-386.8 272.26,-351.2 49.72,-351.2"/>
<polygon fill="none" stroke="black" points="49.72,-351.2 49.72,-386.8 272.26,-386.8 272.26,-351.2 49.72,-351.2"/>
<text text-anchor="start" x="80.25" y="-364.6" font-family="Arial Bold" font-size="18.00">users</text>
<text text-anchor="start" x="117.24" y="-364.6" font-family="Arial" font-size="14.00">    </text>
<text text-anchor="start" x="148.36" y="-364.6" font-family="Arial" font-size="14.00" fill="#666666">[BASE TABLE]</text>
<polygon fill="none" stroke="black" points="49.72,-320.4 49.72,-351.2 272.26,-351.2 272.26,-320.4 49.72,-320.4"/>
<text text-anchor="start" x="56.72" y="-332.6" font-family="Arial" font-size="14.00">id </text>
<text text-anchor="start" x="71.51" y="-332.6" font-family="Arial" font-size="14.00" fill="#666666">[bigint unsigned]</text>
<polygon fill="none" stroke="black" points="49.72,-289.6 49.72,-320.4 272.26,-320.4 272.26,-289.6 49.72,-289.6"/>
<text text-anchor="start" x="56.72" y="-301.8" font-family="Arial" font-size="14.00">family_name </text>
<text text-anchor="start" x="139.98" y="-301.8" font-family="Arial" font-size="14.00" fill="#666666">[varchar(256)]</text>
<polygon fill="none" stroke="black" points="49.72,-258.8 49.72,-289.6 272.26,-289.6 272.26,-258.8 49.72,-258.8"/>
<text text-anchor="start" x="56.72" y="-271" font-family="Arial" font-size="14.00">family_name_kana </text>
<text text-anchor="start" x="178.12" y="-271" font-family="Arial" font-size="14.00" fill="#666666">[varchar(256)]</text>
<polygon fill="none" stroke="black" points="49.72,-228 49.72,-258.8 272.26,-258.8 272.26,-228 49.72,-228"/>
<text text-anchor="start" x="56.72" y="-240.2" font-family="Arial" font-size="14.00">first_name </text>
<text text-anchor="start" x="125.97" y="-240.2" font-family="Arial" font-size="14.00" fill="#666666">[varchar(256)]</text>
<polygon fill="none" stroke="black" points="49.72,-197.2 49.72,-228 272.26,-228 272.26,-197.2 49.72,-197.2"/>
<text text-anchor="start" x="56.72" y="-209.4" font-family="Arial" font-size="14.00">first_name_kana </text>
<text text-anchor="start" x="164.11" y="-209.4" font-family="Arial" font-size="14.00" fill="#666666">[varchar(256)]</text>
<polygon fill="none" stroke="black" points="49.72,-166.4 49.72,-197.2 272.26,-197.2 272.26,-166.4 49.72,-166.4"/>
<text text-anchor="start" x="56.72" y="-178.6" font-family="Arial" font-size="14.00">email </text>
<text text-anchor="start" x="94.07" y="-178.6" font-family="Arial" font-size="14.00" fill="#666666">[varchar(256)]</text>
<polygon fill="none" stroke="black" points="49.72,-135.6 49.72,-166.4 272.26,-166.4 272.26,-135.6 49.72,-135.6"/>
<text text-anchor="start" x="56.72" y="-147.8" font-family="Arial" font-size="14.00">password </text>
<text text-anchor="start" x="120.53" y="-147.8" font-family="Arial" font-size="14.00" fill="#666666">[varchar(256)]</text>
<polygon fill="none" stroke="black" points="49.72,-104.8 49.72,-135.6 272.26,-135.6 272.26,-104.8 49.72,-104.8"/>
<text text-anchor="start" x="56.72" y="-117" font-family="Arial" font-size="14.00">sending_point </text>
<text text-anchor="start" x="147.8" y="-117" font-family="Arial" font-size="14.00" fill="#666666">[int]</text>
<polygon fill="none" stroke="black" points="49.72,-74 49.72,-104.8 272.26,-104.8 272.26,-74 49.72,-74"/>
<text text-anchor="start" x="56.72" y="-86.2" font-family="Arial" font-size="14.00">created_at </text>
<text text-anchor="start" x="126.77" y="-86.2" font-family="Arial" font-size="14.00" fill="#666666">[datetime(6)]</text>
<polygon fill="none" stroke="black" points="49.72,-43.2 49.72,-74 272.26,-74 272.26,-43.2 49.72,-43.2"/>
<text text-anchor="start" x="56.72" y="-55.4" font-family="Arial" font-size="14.00">update_at </text>
<text text-anchor="start" x="122.89" y="-55.4" font-family="Arial" font-size="14.00" fill="#666666">[datetime(6)]</text>
</g>
<!-- transactions&#45;&gt;users -->
<g id="edge1" class="edge">
<title>transactions:sending_user_id&#45;&gt;users:id</title>
<path fill="none" stroke="black" d="M286.88,-617.37C339.36,-588.72 332.85,-335.8 273.26,-335.8"/>
<polygon fill="black" stroke="black" points="286.78,-617.39 275.97,-615.56 281.62,-618.74 277.43,-619.83 277.43,-619.83 277.43,-619.83 281.62,-618.74 278.24,-624.27 286.78,-617.39"/>
<text text-anchor="start" x="283.78" y="-630" font-family="Arial" font-size="10.00">FOREIGN KEY (sending_user_id) REFERENCES users (id)</text>
</g>
<!-- transactions&#45;&gt;users -->
<g id="edge2" class="edge">
<title>transactions:receiving_user_id&#45;&gt;users:id</title>
<path fill="none" stroke="black" d="M286.64,-586.35C332.46,-558.51 326.06,-335.8 273.26,-335.8"/>
<polygon fill="black" stroke="black" points="286.71,-586.33 275.86,-584.78 281.59,-587.81 277.43,-589.01 277.43,-589.01 277.43,-589.01 281.59,-587.81 278.35,-593.43 286.71,-586.33"/>
<text text-anchor="start" x="283.78" y="-599.2" font-family="Arial" font-size="10.00">FOREIGN KEY (receiving_user_id) REFERENCES users (id)</text>
</g>
</g>
</svg>
