<?xml version="1.0" encoding="UTF-8" standalone="no"?>
<!DOCTYPE svg PUBLIC "-//W3C//DTD SVG 1.1//EN"
 "http://www.w3.org/Graphics/SVG/1.1/DTD/svg11.dtd">
<!-- Generated by graphviz version 12.1.2 (20240928.0832)
 -->
<!-- Title: users Pages: 1 -->
<svg width="568pt" height="756pt"
 viewBox="0.00 0.00 567.52 756.00" xmlns="http://www.w3.org/2000/svg" xmlns:xlink="http://www.w3.org/1999/xlink">
<g id="graph0" class="graph" transform="scale(1 1) rotate(0) translate(4 752)">
<title>users</title>
<polygon fill="white" stroke="none" points="-4,4 -4,-752 563.52,-752 563.52,4 -4,4"/>
<!-- users -->
<g id="node1" class="node">
<title>users</title>
<polygon fill="#efefef" stroke="none" points="46.72,-354.2 46.72,-389.8 269.26,-389.8 269.26,-354.2 46.72,-354.2"/>
<polygon fill="none" stroke="black" points="46.72,-354.2 46.72,-389.8 269.26,-389.8 269.26,-354.2 46.72,-354.2"/>
<text text-anchor="start" x="77.25" y="-367.6" font-family="Arial Bold" font-size="18.00">users</text>
<text text-anchor="start" x="114.24" y="-367.6" font-family="Arial" font-size="14.00">    </text>
<text text-anchor="start" x="145.36" y="-367.6" font-family="Arial" font-size="14.00" fill="#666666">[BASE TABLE]</text>
<polygon fill="none" stroke="black" points="46.72,-323.4 46.72,-354.2 269.26,-354.2 269.26,-323.4 46.72,-323.4"/>
<text text-anchor="start" x="53.72" y="-335.6" font-family="Arial" font-size="14.00">id </text>
<text text-anchor="start" x="68.51" y="-335.6" font-family="Arial" font-size="14.00" fill="#666666">[bigint unsigned]</text>
<polygon fill="none" stroke="black" points="46.72,-292.6 46.72,-323.4 269.26,-323.4 269.26,-292.6 46.72,-292.6"/>
<text text-anchor="start" x="53.72" y="-304.8" font-family="Arial" font-size="14.00">family_name </text>
<text text-anchor="start" x="136.98" y="-304.8" font-family="Arial" font-size="14.00" fill="#666666">[varchar(256)]</text>
<polygon fill="none" stroke="black" points="46.72,-261.8 46.72,-292.6 269.26,-292.6 269.26,-261.8 46.72,-261.8"/>
<text text-anchor="start" x="53.72" y="-274" font-family="Arial" font-size="14.00">family_name_kana </text>
<text text-anchor="start" x="175.12" y="-274" font-family="Arial" font-size="14.00" fill="#666666">[varchar(256)]</text>
<polygon fill="none" stroke="black" points="46.72,-231 46.72,-261.8 269.26,-261.8 269.26,-231 46.72,-231"/>
<text text-anchor="start" x="53.72" y="-243.2" font-family="Arial" font-size="14.00">first_name </text>
<text text-anchor="start" x="122.97" y="-243.2" font-family="Arial" font-size="14.00" fill="#666666">[varchar(256)]</text>
<polygon fill="none" stroke="black" points="46.72,-200.2 46.72,-231 269.26,-231 269.26,-200.2 46.72,-200.2"/>
<text text-anchor="start" x="53.72" y="-212.4" font-family="Arial" font-size="14.00">first_name_kana </text>
<text text-anchor="start" x="161.11" y="-212.4" font-family="Arial" font-size="14.00" fill="#666666">[varchar(256)]</text>
<polygon fill="none" stroke="black" points="46.72,-169.4 46.72,-200.2 269.26,-200.2 269.26,-169.4 46.72,-169.4"/>
<text text-anchor="start" x="53.72" y="-181.6" font-family="Arial" font-size="14.00">email </text>
<text text-anchor="start" x="91.07" y="-181.6" font-family="Arial" font-size="14.00" fill="#666666">[varchar(256)]</text>
<polygon fill="none" stroke="black" points="46.72,-138.6 46.72,-169.4 269.26,-169.4 269.26,-138.6 46.72,-138.6"/>
<text text-anchor="start" x="53.72" y="-150.8" font-family="Arial" font-size="14.00">password </text>
<text text-anchor="start" x="117.53" y="-150.8" font-family="Arial" font-size="14.00" fill="#666666">[varchar(256)]</text>
<polygon fill="none" stroke="black" points="46.72,-107.8 46.72,-138.6 269.26,-138.6 269.26,-107.8 46.72,-107.8"/>
<text text-anchor="start" x="53.72" y="-120" font-family="Arial" font-size="14.00">sending_point </text>
<text text-anchor="start" x="144.8" y="-120" font-family="Arial" font-size="14.00" fill="#666666">[int]</text>
<polygon fill="none" stroke="black" points="46.72,-77 46.72,-107.8 269.26,-107.8 269.26,-77 46.72,-77"/>
<text text-anchor="start" x="53.72" y="-89.2" font-family="Arial" font-size="14.00">created_at </text>
<text text-anchor="start" x="123.77" y="-89.2" font-family="Arial" font-size="14.00" fill="#666666">[datetime(6)]</text>
<polygon fill="none" stroke="black" points="46.72,-46.2 46.72,-77 269.26,-77 269.26,-46.2 46.72,-46.2"/>
<text text-anchor="start" x="53.72" y="-58.4" font-family="Arial" font-size="14.00">update_at </text>
<text text-anchor="start" x="119.89" y="-58.4" font-family="Arial" font-size="14.00" fill="#666666">[datetime(6)]</text>
<polygon fill="none" stroke="black" stroke-width="3" points="45.22,-44.7 45.22,-391.3 270.76,-391.3 270.76,-44.7 45.22,-44.7"/>
</g>
<!-- transactions -->
<g id="node2" class="node">
<title>transactions</title>
<polygon fill="#efefef" stroke="none" points="43.2,-669.2 43.2,-704.8 272.78,-704.8 272.78,-669.2 43.2,-669.2"/>
<polygon fill="none" stroke="black" points="43.2,-669.2 43.2,-704.8 272.78,-704.8 272.78,-669.2 43.2,-669.2"/>
<text text-anchor="start" x="52.76" y="-682.6" font-family="Arial Bold" font-size="18.00">transactions</text>
<text text-anchor="start" x="138.74" y="-682.6" font-family="Arial" font-size="14.00">    </text>
<text text-anchor="start" x="169.85" y="-682.6" font-family="Arial" font-size="14.00" fill="#666666">[BASE TABLE]</text>
<polygon fill="none" stroke="black" points="43.2,-638.4 43.2,-669.2 272.78,-669.2 272.78,-638.4 43.2,-638.4"/>
<text text-anchor="start" x="50.2" y="-650.6" font-family="Arial" font-size="14.00">id </text>
<text text-anchor="start" x="64.99" y="-650.6" font-family="Arial" font-size="14.00" fill="#666666">[bigint unsigned]</text>
<polygon fill="none" stroke="black" points="43.2,-607.6 43.2,-638.4 272.78,-638.4 272.78,-607.6 43.2,-607.6"/>
<text text-anchor="start" x="50.2" y="-619.8" font-family="Arial" font-size="14.00">sending_user_id </text>
<text text-anchor="start" x="156.83" y="-619.8" font-family="Arial" font-size="14.00" fill="#666666">[bigint unsigned]</text>
<polygon fill="none" stroke="black" points="43.2,-576.8 43.2,-607.6 272.78,-607.6 272.78,-576.8 43.2,-576.8"/>
<text text-anchor="start" x="50.2" y="-589" font-family="Arial" font-size="14.00">receiving_user_id </text>
<text text-anchor="start" x="163.82" y="-589" font-family="Arial" font-size="14.00" fill="#666666">[bigint unsigned]</text>
<polygon fill="none" stroke="black" points="43.2,-546 43.2,-576.8 272.78,-576.8 272.78,-546 43.2,-546"/>
<text text-anchor="start" x="50.2" y="-558.2" font-family="Arial" font-size="14.00">transaction_point </text>
<text text-anchor="start" x="160.72" y="-558.2" font-family="Arial" font-size="14.00" fill="#666666">[int]</text>
<polygon fill="none" stroke="black" points="43.2,-515.2 43.2,-546 272.78,-546 272.78,-515.2 43.2,-515.2"/>
<text text-anchor="start" x="50.2" y="-527.4" font-family="Arial" font-size="14.00">transaction_at </text>
<text text-anchor="start" x="142.03" y="-527.4" font-family="Arial" font-size="14.00" fill="#666666">[datetime(6)]</text>
</g>
<!-- transactions&#45;&gt;users -->
<g id="edge1" class="edge">
<title>transactions:receiving_user_id&#45;&gt;users:id</title>
<path fill="none" stroke="black" d="M283.64,-589.35C329.46,-561.51 323.06,-338.8 270.26,-338.8"/>
<polygon fill="black" stroke="black" points="283.71,-589.33 272.86,-587.78 278.59,-590.81 274.43,-592.01 274.43,-592.01 274.43,-592.01 278.59,-590.81 275.35,-596.43 283.71,-589.33"/>
<text text-anchor="start" x="280.78" y="-602.2" font-family="Arial" font-size="10.00">FOREIGN KEY (receiving_user_id) REFERENCES users (id)</text>
</g>
<!-- transactions&#45;&gt;users -->
<g id="edge2" class="edge">
<title>transactions:sending_user_id&#45;&gt;users:id</title>
<path fill="none" stroke="black" d="M283.88,-620.37C336.36,-591.72 329.85,-338.8 270.26,-338.8"/>
<polygon fill="black" stroke="black" points="283.78,-620.39 272.97,-618.56 278.62,-621.74 274.43,-622.83 274.43,-622.83 274.43,-622.83 278.62,-621.74 275.24,-627.27 283.78,-620.39"/>
<text text-anchor="start" x="280.78" y="-633" font-family="Arial" font-size="10.00">FOREIGN KEY (sending_user_id) REFERENCES users (id)</text>
</g>
</g>
</svg>
